HIERARCHY
ROOT Hips
{
	OFFSET -14.64140 90.27770 -84.91600
	CHANNELS 6 Xposition Yposition Zposition Zrotation Xrotation Yrotation
	JOINT Spine
	{
		OFFSET 0.00000 13.20850 -1.60436
		CHANNELS 3 Zrotation Xrotation Yrotation
		JOINT Spine1
		{
			OFFSET 0.00000 8.61716 0.00000
			CHANNELS 3 Zrotation Xrotation Yrotation
			JOINT Spine2
			{
				OFFSET 0.00000 8.61717 0.00000
				CHANNELS 3 Zrotation Xrotation Yrotation
				JOINT Spine3
				{
					OFFSET 0.00000 8.61717 0.00000
					CHANNELS 3 Zrotation Xrotation Yrotation
					JOINT Neck
					{
						OFFSET 0.00000 11.07920 1.10792
						CHANNELS 3 Zrotation Xrotation Yrotation
						JOINT Neck1
						{
							OFFSET 0.00000 7.08032 0.00000
							CHANNELS 3 Zrotation Xrotation Yrotation
							JOINT Head
							{
								OFFSET 0.00000 7.08031 0.00000
								CHANNELS 3 Zrotation Xrotation Yrotation
								End site
								{
									OFFSET 0.00000 0.00000 0.00000
								}
							}
						}
					}
					JOINT RightShoulder
					{
						OFFSET -0.01000 7.91373 5.19711
						CHANNELS 3 Zrotation Xrotation Yrotation
						JOINT RightArm
						{
							OFFSET -18.41580 0.00000 0.00000
							CHANNELS 3 Zrotation Xrotation Yrotation
							JOINT RightForeArm
							{
								OFFSET -29.11090 0.00000 0.00000
								CHANNELS 3 Zrotation Xrotation Yrotation
								JOINT RightHand
								{
									OFFSET -24.65040 0.00000 0.00000
									CHANNELS 3 Zrotation Xrotation Yrotation
									JOINT RightHandThumb1
									{
										OFFSET -5.35114 -0.85590 3.97906
										CHANNELS 3 Zrotation Xrotation Yrotation
										JOINT RightHandThumb2
										{
											OFFSET -4.52789 0.00000 0.00000
											CHANNELS 3 Zrotation Xrotation Yrotation
											JOINT RightHandThumb3
											{
												OFFSET -2.46976 0.00000 0.00000
												CHANNELS 3 Zrotation Xrotation Yrotation
												End site
												{
													OFFSET 0.00000 0.00000 0.00000
												}
											}
										}
									}
									JOINT RightHandIndex1
									{
										OFFSET -14.26970 0.00000 2.88139
										CHANNELS 3 Zrotation Xrotation Yrotation
										JOINT RightHandIndex2
										{
											OFFSET -5.48836 0.00000 0.00000
											CHANNELS 3 Zrotation Xrotation Yrotation
											JOINT RightHandIndex3
											{
												OFFSET -3.01859 0.00000 0.00000
												CHANNELS 3 Zrotation Xrotation Yrotation
												End site
												{
													OFFSET 0.00000 0.00000 0.00000
												}
											}
										}
									}
									JOINT RightHandMiddle1
									{
										OFFSET -14.26970 0.00000 -0.09147
										CHANNELS 3 Zrotation Xrotation Yrotation
										JOINT RightHandMiddle2
										{
											OFFSET -6.17441 0.00000 0.00000
											CHANNELS 3 Zrotation Xrotation Yrotation
											JOINT RightHandMiddle3
											{
												OFFSET -3.56743 0.00000 0.00000
												CHANNELS 3 Zrotation Xrotation Yrotation
												End site
												{
													OFFSET 0.00000 0.00000 0.00000
												}
											}
										}
									}
									JOINT RightHandRing1
									{
										OFFSET -12.69180 0.00000 -3.06433
										CHANNELS 3 Zrotation Xrotation Yrotation
										JOINT RightHandRing2
										{
											OFFSET -5.62556 0.00000 0.00000
											CHANNELS 3 Zrotation Xrotation Yrotation
											JOINT RightHandRing3
											{
												OFFSET -3.56744 0.00000 0.00000
												CHANNELS 3 Zrotation Xrotation Yrotation
												End site
												{
													OFFSET 0.00000 0.00000 0.00000
												}
											}
										}
									}
									JOINT RightHandPinky1
									{
										OFFSET -11.11390 0.00000 -6.03719
										CHANNELS 3 Zrotation Xrotation Yrotation
										JOINT RightHandPinky2
										{
											OFFSET -4.52789 0.00000 0.00000
											CHANNELS 3 Zrotation Xrotation Yrotation
											JOINT RightHandPinky3
											{
												OFFSET -2.46976 0.00000 0.00000
												CHANNELS 3 Zrotation Xrotation Yrotation
												End site
												{
													OFFSET 0.00000 0.00000 0.00000
												}
											}
										}
									}
								}
							}
						}
					}
					JOINT LeftShoulder
					{
						OFFSET 0.01000 7.91373 5.19711
						CHANNELS 3 Zrotation Xrotation Yrotation
						JOINT LeftArm
						{
							OFFSET 18.41580 0.00000 0.00000
							CHANNELS 3 Zrotation Xrotation Yrotation
							JOINT LeftForeArm
							{
								OFFSET 29.11090 0.00000 0.00000
								CHANNELS 3 Zrotation Xrotation Yrotation
								JOINT LeftHand
								{
									OFFSET 24.65040 0.00000 0.00000
									CHANNELS 3 Zrotation Xrotation Yrotation
									JOINT LeftHandThumb1
									{
										OFFSET 5.35114 -0.85590 3.97906
										CHANNELS 3 Zrotation Xrotation Yrotation
										JOINT LeftHandThumb2
										{
											OFFSET 4.52789 0.00000 0.00000
											CHANNELS 3 Zrotation Xrotation Yrotation
											JOINT LeftHandThumb3
											{
												OFFSET 2.46977 0.00000 0.00000
												CHANNELS 3 Zrotation Xrotation Yrotation
												End site
												{
													OFFSET 0.00000 0.00000 0.00000
												}
											}
										}
									}
									JOINT LeftHandIndex1
									{
										OFFSET 14.26970 0.00000 2.88139
										CHANNELS 3 Zrotation Xrotation Yrotation
										JOINT LeftHandIndex2
										{
											OFFSET 5.48836 0.00000 0.00000
											CHANNELS 3 Zrotation Xrotation Yrotation
											JOINT LeftHandIndex3
											{
												OFFSET 3.01859 0.00000 0.00000
												CHANNELS 3 Zrotation Xrotation Yrotation
												End site
												{
													OFFSET 0.00000 0.00000 0.00000
												}
											}
										}
									}
									JOINT LeftHandMiddle1
									{
										OFFSET 14.26970 0.00000 -0.09147
										CHANNELS 3 Zrotation Xrotation Yrotation
										JOINT LeftHandMiddle2
										{
											OFFSET 6.17440 0.00000 0.00000
											CHANNELS 3 Zrotation Xrotation Yrotation
											JOINT LeftHandMiddle3
											{
												OFFSET 3.56744 0.00000 0.00000
												CHANNELS 3 Zrotation Xrotation Yrotation
												End site
												{
													OFFSET 0.00000 0.00000 0.00000
												}
											}
										}
									}
									JOINT LeftHandRing1
									{
										OFFSET 12.69180 0.00000 -3.06433
										CHANNELS 3 Zrotation Xrotation Yrotation
										JOINT LeftHandRing2
										{
											OFFSET 5.62556 0.00000 0.00000
											CHANNELS 3 Zrotation Xrotation Yrotation
											JOINT LeftHandRing3
											{
												OFFSET 3.56744 0.00000 0.00000
												CHANNELS 3 Zrotation Xrotation Yrotation
												End site
												{
													OFFSET 0.00000 0.00000 0.00000
												}
											}
										}
									}
									JOINT LeftHandPinky1
									{
										OFFSET 11.11390 0.00000 -6.03719
										CHANNELS 3 Zrotation Xrotation Yrotation
										JOINT LeftHandPinky2
										{
											OFFSET 4.52789 0.00000 0.00000
											CHANNELS 3 Zrotation Xrotation Yrotation
											JOINT LeftHandPinky3
											{
												OFFSET 2.46976 0.00000 0.00000
												CHANNELS 3 Zrotation Xrotation Yrotation
												End site
												{
													OFFSET 0.00000 0.00000 0.00000
												}
											}
										}
									}
								}
							}
						}
					}
					JOINT pCube4
					{
						OFFSET 0.00000 10.91090 1.10792
						CHANNELS 3 Zrotation Xrotation Yrotation
						End site
						{
							OFFSET 0.00000 0.00000 0.00000
						}
					}
				}
			}
		}
	}
	JOINT RightUpLeg
	{
		OFFSET -9.98441 0.00000 0.00000
		CHANNELS 3 Zrotation Xrotation Yrotation
		JOINT RightLeg
		{
			OFFSET 0.00000 -42.11790 0.00000
			CHANNELS 3 Zrotation Xrotation Yrotation
			JOINT RightFoot
			{
				OFFSET 0.00000 -45.00020 -0.00001
				CHANNELS 3 Zrotation Xrotation Yrotation
				JOINT RightForeFoot
				{
					OFFSET 0.00000 -3.74820 0.00000
					CHANNELS 3 Zrotation Xrotation Yrotation
					JOINT RightToeBase
					{
						OFFSET 0.00000 0.06325 14.43120
						CHANNELS 3 Zrotation Xrotation Yrotation
						End site
						{
							OFFSET 0.00000 0.00000 0.00000
						}
					}
				}
			}
		}
	}
	JOINT LeftUpLeg
	{
		OFFSET 9.98441 0.00000 0.00000
		CHANNELS 3 Zrotation Xrotation Yrotation
		JOINT LeftLeg
		{
			OFFSET 0.00000 -42.11800 0.00000
			CHANNELS 3 Zrotation Xrotation Yrotation
			JOINT LeftFoot
			{
				OFFSET 0.00000 -45.00070 0.00000
				CHANNELS 3 Zrotation Xrotation Yrotation
				JOINT LeftForeFoot
				{
					OFFSET 0.00000 -3.74824 0.00000
					CHANNELS 3 Zrotation Xrotation Yrotation
					JOINT LeftToeBase
					{
						OFFSET 0.00000 0.06325 14.43110
						CHANNELS 3 Zrotation Xrotation Yrotation
						End site
						{
							OFFSET 0.00000 0.00000 0.00000
						}
					}
				}
			}
		}
	}
}
MOTION
Frames: 4
Frame Time: 0.050000
-0.03517324059585171 0.038197700938596375 0.0435199460153598 0.025044266818352024 -0.03562388767124825 -0.03149557845011046 -3.428630634148695 -0.6483380892333692 -0.6094985029135642 -1.0877852967130235 3.807270707137072 0.36136218452308805 -1.3633332380373013 -1.8853322303818465 -0.9643475528525938 0.147795172454407 0.5415433889894544 -0.8557124303831083 0.04339912720656639 12.443790326289685 0.33612693741482064 0.21362103574617003 -0.13503715773977962 -0.9581968364629918 0.3350327651856486 -15.01218291459037 -0.05269665114072894 -4.91178157335046 1.6158773015080705 -13.920098845933484 64.51630882461235 21.284426279663855 12.789609361739975 5.756698650670607 2.2047703479181076 62.45210293201635 15.441982245062857 -0.23248085357911655 -2.598287751794778 4.57824092969875 -0.10458260012983743 -1.600956965745801 0.04581776955151393 -0.016421428884512097 -56.18881526478529 -0.006798164402453768 0.018337047530616473 -56.20969360324509 -38.75053611220482 -0.023068568533514872 -0.00871504114947698 -0.01234174741852006 -0.003239570757239242 -0.02992727416640113 -0.037209067324182235 -0.02849066614909142 -0.005416045845309968 -36.70627251763774 -0.004788444035712832 -0.002951838262390813 -0.015876254413866607 0.038561194999561184 0.018803477320296108 -0.023768906791737286 0.03141540518987162 0.04337397515696302 -19.79285503379907 0.003931502412551032 0.023053108631979544 -0.03544498232613889 -0.03443212176661193 -0.041943862569215125 -0.032299386889596236 -0.0010901918109026015 -0.03523202876193983 24.034564636468335 0.022953007951427556 -0.008538140540694968 28.83840252805085 -0.036645947536812745 0.041164973621223594 28.83942775627583 0.037630419957586016 0.04150508957772332 5.3317493103270035 1.1893218147864095 12.523106032766538 -70.07232464896525 28.039479169468837 -10.93558574513577 -44.736364357895305 2.9820123681378594 -80.3288088735343 -5.628828462336034 0.6317496513937032 -0.658350295492444 -0.4830597316293948 0.04121022825366537 -8.112786270474837 0.029217549606715566 0.0066873118432148005 44.614730898665925 0.022025118852921237 0.016591850347922033 44.595445004885875 12.413102267386225 -0.031969528841719295 -0.04380278991389913 -0.021308763036296172 -0.005401492580756653 0.002299359555684534 -0.004007493210401886 -0.046778803279420016 0.04889375352769222 11.062916394867436 -0.019210529356920174 0.01813301234647345 0.01994757818006433 0.011798808260296865 0.025875140868785992 -0.020695206007985738 0.006248732764036708 0.008222802581104137 4.735610000545658 -0.01979665891178602 0.02328167323151697 0.04238615688067073 -0.01357521476391596 -0.02950063302383798 -0.02665621834806573 -0.010455639183451685 0.017706816987424757 -5.622962113034532 -0.03447328866619075 0.042420309893944186 -6.7326482701563695 -0.04088132608278892 0.01115827467604198 -6.710338863855867 0.018336849622373457 0.045367594211740525 0.027708680840683553 0.020138385099800832 0.04015259307253555 8.061772782370403 3.4861350945548883 -19.249318336940874 0.04837750445047846 10.366043437550188 0.00802783268264217 -5.635472439685076 -15.650562961543656 3.1534511508960152 -0.026910413691056 -0.04837193038301834 0.016872568955075138 0.028897237677273337 4.705769847549605 0.02227540810509954 12.462265500206605 -8.279891995541236 6.878528077705985 0.02711400046403233 46.343731722300866 -0.0035736406301897965 -4.312409624659707 -14.750045321470616 -3.8812987934163936 -0.02291283116679443 0.0351747862523866 0.041799300531719055 -0.015423889737454994 -10.762277223150061 -0.022612244663559235 
0.023612000422113817 -0.031072213459105404 -0.0010662521526173903 -0.008668241112826193 -0.034133326693785444 0.03407522030837909 -3.4060945165069656 -0.6536190231611041 -0.597782421779859 -1.1118869997596887 3.7854944782087183 0.3762405496273642 -1.3625153723979102 -1.910074405254392 -0.9022678230166594 0.052152450559716484 0.4523041109669551 -0.79948033140465 -0.03334005044599843 12.553179944189619 0.6860274382976992 0.2657374544733049 -0.07605829646849248 -0.0804944704896278 0.2258073677402375 -14.990077097938324 -0.034907790884737326 -4.876090327363459 1.5899826235697747 -13.913940685652987 65.05789044084955 22.064901260078425 11.961796431005611 5.979149448991126 2.541442965236326 62.74255975919899 15.57288498101472 -0.19204746539601725 -2.485189204946353 4.5479717661914645 -0.09480097953923913 -1.5890973486099655 -0.03603936878512809 -0.02081596368077979 -56.18635691387857 0.02983733668857486 0.005900081532588527 -56.20258971927085 -38.75953052948746 -0.01613532972610022 6.444077364675966e-05 -0.02047073645507522 0.03640949084758453 0.04741213919689161 -0.03953491719326465 -0.00720590534382315 0.014780120382122126 -36.651789508502944 0.026743721732504368 0.00724533458258246 -0.02202983536485091 -0.029245534441071034 -0.030716608113737994 0.03633911063407369 0.02416455274851115 -0.027677567473874492 -19.756564610754623 -0.010581631649898466 -0.02658774628305665 0.008971904420251323 0.0492484813035883 -0.04538671084294939 0.043374731187401025 0.008593031395219644 0.017629119034476476 24.041215375224827 -0.03979457763349189 0.0033761477840477585 28.87366620949901 -0.030728658742782168 0.00888735745799625 28.898408278333207 -0.046429066578138736 -0.016628075207269596 5.575682608483385 1.2159870591352084 12.604126153031402 -70.4309898250394 28.155302085614043 -10.924846841385373 -44.275925383883326 3.1152746119106873 -80.20347132172364 -6.220607485655403 0.5129937059322417 -0.7167211519204745 -0.43646474723198725 0.10869244222041483 -8.074831062695289 0.010909939705027192 -0.028342585620284265 44.545903028175786 0.02182012771912654 -0.025508081603638252 44.52593841993268 12.412697866591566 -0.03529017525910922 -0.007657717589073153 0.03326592091217094 0.03580279190337817 -0.009602512752014822 0.03264236335961574 -0.03384338472419389 -0.040748936525117345 11.117503256158177 -0.01268895450550996 -0.03531957847928094 0.0007801416253826746 -0.025082872799564122 -0.02216627459946285 0.029196201080601687 0.004528522378108113 -0.00810915114329195 4.786106754422107 0.04233839810826235 -0.03448660946474617 0.006517280684888595 0.04201562508897425 0.014832661472945189 0.014777102111823294 -0.03014072334487417 -0.022055516871458913 -5.613704007700769 -0.007253308932202039 0.012771884283661205 -6.759646640697312 0.019396231719453084 0.030609551034555035 -6.720720269879556 -0.005585140440157035 -0.02950897622554272 -0.0019183550611709065 0.02628877326177024 0.032181900249996044 8.048042744153074 3.454951080496516 -19.207775322248832 -0.012200088262626129 10.411119813140552 0.01484234959059407 -5.57128623215023 -15.681776712226437 3.192692781458635 -0.04679352232315275 -0.006800675748730285 -0.01219544001593628 -0.012413757866978507 4.687185040045922 0.023365013150349615 12.501916682270004 -8.284918242391791 6.917997165370163 0.03762767931999002 46.364705670791224 0.02193379365116038 -4.328652569475724 -14.769349785905309 -3.8061935908810014 -0.035943481567371434 0.03511689963491717 -0.03461891945387276 0.04350403492603236 -10.709410029646783 -0.021729863566088845 
0.008915683770710106 0.009012841952904558 -0.003979534225188969 -0.003576309031297316 0.016952633646986872 -0.04559718670060564 -3.2906897990827293 -0.4735328844422166 -0.6324394383831643 -1.07457148787422 3.7698276301581743 0.3748749050628238 -1.3301428991381419 -1.9360952713880348 -1.0710616034925662 -0.05065607678790693 0.4328544159463941 -0.8602929744650094 -0.23446173566001516 12.50689330736947 1.0583925243411567 0.18423919605834332 -0.14836255738677387 0.9414856500670102 0.043085588444104504 -15.042712113649577 0.10790415429142511 -4.571237425547914 1.5235188934404051 -14.068560296436216 67.38342888744876 23.32381549948565 9.185483595367943 5.467169309960324 3.1318391353912856 60.1949454250738 16.42807314715477 -0.21715411844851734 -2.680643757669973 4.4858504343134085 -0.08202021471787571 -1.6285324332239475 0.014641254319856613 0.04534970438267265 -56.20397530230943 -0.04704137802347665 0.027653539240494338 -56.20924974046419 -38.753112485373485 0.025169999317950772 -0.015265184422649292 0.021402734146609217 0.02693144851266862 -0.04156998336905592 -0.03823677768238933 0.0004295311062910164 -0.0018731047433965108 -36.67923269264254 0.008819751957452751 0.011446991208791338 -0.006624395071940869 0.013046832591594434 0.0023776319400814383 -0.0286210886646936 0.03439069668941268 0.0360338521713455 -19.767988767200418 0.027342216905251095 -0.037047901517341796 0.017098881122806033 -0.031027060704691363 0.025179505517930224 0.0295640778215292 0.020334138566413536 -0.011025254914418468 24.017884910954724 0.021107926631276776 0.005362020608263751 28.84466037912292 0.002137157586028177 -0.03613679127304701 28.82555725691463 -0.029566194729469728 -0.0014616471340211927 5.920961158785035 1.3055094234661124 12.683489017010631 -71.11222963365736 28.177109178811914 -10.817818729802406 -43.53711267239797 3.7418271819676296 -80.00554539032652 -7.531945545095245 -0.3082565596171708 -0.23232524525177395 -0.4549205567546014 0.0712122689946714 -8.136925780419942 0.01261468851078238 0.029264390793139465 44.61528667531867 -0.023191547484015595 0.024656492362707942 44.560464676042976 12.479002163276059 0.01394079357303079 0.019888630500012962 -0.037716318050830124 0.003582347179576774 0.038903696829766216 -0.015351937981389204 -0.010663107386602724 0.01588553543600794 11.115847547199117 -0.028343991709211185 -0.042655352130943805 0.046796956982203125 0.020964384557372834 0.007764748959504034 0.04221453479875473 0.030298560335386505 -0.019441980821745884 4.8013790372226595 -0.03862861544148212 0.008571422562640716 -0.007667695072490265 0.014353458028510013 -0.008854397086150533 0.03233175579359961 -0.031035382361443403 -0.0386794005169058 -5.646994853465922 -0.0005065812347226034 -0.04499692265039909 -6.737111591549844 0.03970045606398514 -0.004215224231781332 -6.672531955161445 -0.03404391154827371 0.021244127290630903 0.013232976234070389 -0.022665441183188095 0.003755473360935686 8.062716269450085 3.49364835370435 -19.22935177923651 0.04820156432861574 10.345877698432778 -0.01827308665943331 -5.58052805596978 -15.697500557804634 3.2092931046625073 -0.01926395382035921 0.0024227785610240076 0.006174680499741155 -0.005462534350590377 4.730641573015977 0.023631618639783566 12.454568981913722 -8.209090947073426 6.892374476957994 -0.03448940078176957 46.375421939763946 0.0355002844304343 -4.294466100542655 -14.74773231482778 -3.879806972237275 0.0030602236651634694 -0.006509114911193054 -0.005009132749625475 0.035289556074954466 -10.780463605712626 0.02113012896344156 
-0.0459522543823341 -0.02762359565059713 0.02456442695876636 0.013486333471909882 -0.04430183405239453 -0.03573424653899704 -3.1683047997470672 -0.23895794171515167 -0.6646684124246219 -1.049261072219939 3.7198607136888833 0.3716417977663746 -1.2488208422782554 -1.9554303283794823 -1.2594314970716929 -0.11659001461348165 0.5151592835256236 -0.8894942725026712 -0.4629315420634931 12.367025257028622 1.4517268136150596 0.2030731208545923 -0.23353352016689022 2.0093725389677095 -0.061298079704349445 -15.19682483257436 0.16322974150257902 -4.062666844095563 1.4682598184070512 -14.330417029305222 70.19157878392632 25.140113394528246 5.894070383351219 4.809125346398489 3.679434825089024 56.252395146332894 18.02104188319311 -0.1683187080034853 -3.1498824112955686 4.518391648336541 -0.11084760884918074 -1.6094791790744707 -0.003699113161435118 0.022030810893174203 -56.23511206854326 0.020061704819396883 0.013777131386428063 -56.21691530431836 -38.75767222245085 0.03367217360397097 -0.0010384237785043505 -0.009570352346314766 0.019321916994914767 -0.0034561029709390457 0.03847756790712115 -0.016971749359794203 -0.034039301247947386 -36.663989349579566 0.0004277240907269288 0.015200819024378275 -0.03895014903571792 0.0025155349245771035 -0.040289390218851306 0.022992604941055796 0.011584450570051474 0.004840868387285842 -19.70883085133688 0.024430868993604245 -0.023762181370289404 0.01890278046912766 0.025817545051776462 0.03739055695617637 -0.008365043150040528 -0.03297955046750007 0.012270489417319258 24.00755939995166 -0.013468547755583284 0.0388230870962549 28.893370934835538 -0.018004726166863567 0.018133445044799662 28.914021318674905 -0.009576946193762913 0.04877191817221499 6.15224006947582 1.3803315021028584 12.895346154221494 -71.62529934129961 28.0449902834739 -10.62811879725922 -42.63161969857362 4.703648623691079 -79.21950823229226 -9.501062297389653 -1.4936988481002882 0.5964121457979885 -0.4982012410946603 0.11458957134852728 -8.10089316773951 0.04466405637442069 0.0007805580573031038 44.609437315676 0.035558112141866924 0.018412308575275895 44.57991607331098 12.476477155317378 -0.008467336592183704 -0.04428417236236459 -0.009064674148067912 -0.016493820295081126 -0.0062934575762717115 -0.04979411069429955 -0.021313237314973754 -0.004819746575259545 11.092234431499818 0.01985365592211353 -0.02486828303722876 -0.037159335619503894 0.023755177137625195 -0.02376637975952762 -0.036441645640020885 0.013572673397328972 -0.008192260200099983 4.729956750258659 -0.047491812804093717 0.00926010295454432 0.014213293632924685 0.01128248125896298 -0.03493530641611644 0.01662868603984643 0.037639144361188155 0.045000575001434936 -5.57841101082118 0.022037643108655462 -0.019065646959961866 -6.767009391611566 0.0016946888004656872 0.018801040197417553 -6.721737920341997 0.042062963220134066 0.021874146203219952 -0.04020457531667201 -0.03335576990704906 0.04325777688394585 8.034241949021704 3.5182421266772788 -19.23600587397447 0.009734968034380323 10.412343790332272 0.027799722351827785 -5.643622377858267 -15.670350854221573 3.208659223379381 -0.008494082236232114 -0.024531597172529628 0.010496425392273821 0.012737672095524554 4.725376452718218 -0.04628642346565829 12.486681209547726 -8.230114326490126 6.861739360567389 -0.002153851301103668 46.37072371958171 0.019080702406538506 -4.338173446413873 -14.784188212080462 -3.804930483195194 -0.0031451772351222583 0.014972597935188089 0.01880098184546201 0.016641415500661054 -10.749223036303746 0.0075804700316374945 
